<svg width="23" height="26" viewBox="0 0 23 26" fill="none" xmlns="http://www.w3.org/2000/svg">
<path d="M4.92857 7.8V5.2H8.21429V7.8H4.92857ZM3.28571 0H19.7143C20.5857 0 21.4214 0.273928 22.0376 0.761522C22.6538 1.24912 23 1.91044 23 2.6V22.1C23 22.7896 22.6538 23.4509 22.0376 23.9385C21.4214 24.4261 20.5857 24.7 19.7143 24.7V26H16.4286V24.7H6.57143V26H3.28571V24.7C2.41429 24.7 1.57855 24.4261 0.962363 23.9385C0.346172 23.4509 0 22.7896 0 22.1V2.6C0 1.91044 0.346172 1.24912 0.962363 0.761522C1.57855 0.273928 2.41429 0 3.28571 0ZM3.28571 2.6V9.1H19.7143V2.6H3.28571ZM4.92857 13V16.9H8.21429V13H4.92857Z" fill="#FFCB67"/>
</svg>
