<svg width="23" height="26" viewBox="0 0 23 26" fill="none" xmlns="http://www.w3.org/2000/svg">
<path d="M3.28571 0C2.41429 0 1.57855 0.273928 0.962363 0.761522C0.346172 1.24912 0 1.91044 0 2.6V22.1C0 22.7896 0.346172 23.4509 0.962363 23.9385C1.57855 24.4261 2.41429 24.7 3.28571 24.7V26H6.57143V24.7H16.4286V26H19.7143V24.7C20.5857 24.7 21.4214 24.4261 22.0376 23.9385C22.6538 23.4509 23 22.7896 23 22.1V2.6C23 1.91044 22.6538 1.24912 22.0376 0.761522C21.4214 0.273928 20.5857 0 19.7143 0H3.28571ZM4.92857 5.2H8.21429V7.8H4.92857V5.2ZM3.28571 11.7H19.7143V22.1H3.28571V11.7ZM4.92857 13V16.9H8.21429V13H4.92857Z" fill="#FFCB67"/>
</svg>
