<svg width="26" height="27" viewBox="0 0 26 27" fill="none" xmlns="http://www.w3.org/2000/svg">
<rect width="26" height="27" rx="13" fill="white"/>
<g clip-path="url(#clip0_70_277)">
<path d="M9.96721 3.65781C7.9689 4.35104 6.24556 5.66682 5.05032 7.41188C3.85508 9.15693 3.25095 11.2393 3.32665 13.3531C3.40236 15.4669 4.15391 17.5007 5.47092 19.1557C6.78794 20.8108 8.60099 21.9999 10.6438 22.5484C12.2999 22.9758 14.035 22.9945 15.7 22.6031C17.2083 22.2643 18.6028 21.5396 19.7469 20.5C20.9376 19.3849 21.802 17.9664 22.2469 16.3969C22.7305 14.6901 22.8166 12.8952 22.4985 11.15H13.1985V15.0078H18.5844C18.4768 15.6231 18.2461 16.2104 17.9062 16.7344C17.5663 17.2585 17.1242 17.7086 16.6063 18.0578C15.9486 18.4929 15.2072 18.7856 14.4297 18.9172C13.6499 19.0622 12.8501 19.0622 12.0703 18.9172C11.28 18.7538 10.5324 18.4276 9.87502 17.9594C8.819 17.2119 8.02608 16.1499 7.6094 14.925C7.18567 13.6772 7.18567 12.3244 7.6094 11.0766C7.906 10.2019 8.39632 9.40552 9.04377 8.74687C9.7847 7.97929 10.7227 7.43062 11.755 7.16105C12.7872 6.89149 13.8737 6.91145 14.8953 7.21875C15.6934 7.46373 16.4232 7.89177 17.0266 8.46875C17.6339 7.86458 18.2401 7.25885 18.8453 6.65156C19.1578 6.325 19.4985 6.01406 19.8063 5.67968C18.8853 4.82262 17.8042 4.15571 16.625 3.71718C14.4777 2.93748 12.1281 2.91653 9.96721 3.65781Z" fill="white"/>
<path d="M9.96721 3.65781C12.1279 2.91603 14.4775 2.93643 16.625 3.71563C17.8044 4.15713 18.885 4.82725 19.8047 5.6875C19.4922 6.02188 19.1625 6.33438 18.8438 6.65938C18.2375 7.26458 17.6318 7.86771 17.0266 8.46875C16.4232 7.89178 15.6934 7.46374 14.8953 7.21875C13.874 6.91038 12.7876 6.88926 11.7551 7.15772C10.7226 7.42618 9.78395 7.97385 9.04221 8.74063C8.39476 9.39928 7.90444 10.1957 7.60784 11.0703L4.36877 8.5625C5.52816 6.26338 7.53557 4.50473 9.96721 3.65781Z" fill="#E33629"/>
<path d="M3.50942 11.0469C3.68352 10.1841 3.97255 9.34848 4.36879 8.5625L7.60786 11.0766C7.18413 12.3244 7.18413 13.6772 7.60786 14.925C6.52869 15.7583 5.449 16.5958 4.36879 17.4375C3.37684 15.463 3.07431 13.2133 3.50942 11.0469Z" fill="#F8BD00"/>
<path d="M13.1984 11.1484H22.4984C22.8166 12.8936 22.7305 14.6885 22.2469 16.3953C21.8019 17.9648 20.9376 19.3834 19.7469 20.4984C18.7016 19.6828 17.6516 18.8734 16.6063 18.0578C17.1245 17.7082 17.5668 17.2576 17.9067 16.733C18.2467 16.2084 18.4771 15.6205 18.5844 15.0047H13.1984C13.1969 13.7203 13.1984 12.4344 13.1984 11.1484Z" fill="#587DBD"/>
<path d="M4.36719 17.4375C5.4474 16.6042 6.52708 15.7667 7.60625 14.925C8.02376 16.1503 8.81782 17.2123 9.875 17.9594C10.5344 18.4254 11.2836 18.749 12.075 18.9094C12.8548 19.0544 13.6546 19.0544 14.4344 18.9094C15.2119 18.7778 15.9533 18.485 16.6109 18.05C17.6562 18.8656 18.7063 19.675 19.7516 20.4906C18.6076 21.5308 17.2132 22.2561 15.7047 22.5953C14.0397 22.9867 12.3046 22.968 10.6484 22.5406C9.3386 22.1909 8.11512 21.5744 7.05469 20.7297C5.93228 19.8386 5.01556 18.7156 4.36719 17.4375Z" fill="#319F43"/>
</g>
<defs>
<clipPath id="clip0_70_277">
<rect width="20" height="20" fill="white" transform="translate(3 3)"/>
</clipPath>
</defs>
</svg>
