<svg width="12" height="13" viewBox="0 0 12 13" fill="none" xmlns="http://www.w3.org/2000/svg">
<path d="M11.25 12.125V0.875008C11.2496 0.761106 11.2119 0.64946 11.141 0.552085C11.0701 0.45471 10.9686 0.375294 10.8476 0.322386C10.7266 0.269477 10.5905 0.245079 10.4541 0.251818C10.3176 0.258557 10.186 0.296179 10.0733 0.360632L0.323268 5.98563C-0.0809819 6.21876 -0.0809819 6.78001 0.323268 7.01376L10.0733 12.6388C10.1857 12.7039 10.3174 12.742 10.4541 12.7492C10.5908 12.7563 10.7272 12.732 10.8485 12.6791C10.9698 12.6261 11.0713 12.5465 11.1421 12.4488C11.2129 12.3511 11.2502 12.2391 11.25 12.125Z" fill="#FFCB67"/>
</svg>
