<svg width="33" height="31" viewBox="0 0 33 31" fill="none" xmlns="http://www.w3.org/2000/svg">
<path d="M30.3133 25.3541C30.9769 25.3545 31.6151 25.6203 32.0954 26.0966C32.5757 26.5729 32.8614 27.2231 32.8933 27.9125C32.9252 28.6019 32.7009 29.2776 32.2667 29.7996C31.8326 30.3217 31.2219 30.65 30.5614 30.7166L30.3133 30.7291H2.747C2.08331 30.7288 1.44519 30.4629 0.96486 29.9867C0.484532 29.5104 0.198819 28.8602 0.166924 28.1708C0.13503 27.4814 0.359399 26.8057 0.793539 26.2837C1.22768 25.7616 1.83831 25.4333 2.4989 25.3667L2.747 25.3541H30.3133ZM30.3133 12.8125C30.9987 12.8125 31.656 13.0956 32.1407 13.5996C32.6253 14.1036 32.8976 14.7872 32.8976 15.5C32.8976 16.2127 32.6253 16.8963 32.1407 17.4003C31.656 17.9043 30.9987 18.1875 30.3133 18.1875H2.747C2.06159 18.1875 1.40425 17.9043 0.919594 17.4003C0.434936 16.8963 0.162659 16.2127 0.162659 15.5C0.162659 14.7872 0.434936 14.1036 0.919594 13.5996C1.40425 13.0956 2.06159 12.8125 2.747 12.8125H30.3133ZM30.3133 0.270813C30.9987 0.270813 31.656 0.55396 32.1407 1.05796C32.6253 1.56197 32.8976 2.24554 32.8976 2.95831C32.8976 3.67108 32.6253 4.35466 32.1407 4.85866C31.656 5.36267 30.9987 5.64581 30.3133 5.64581H2.747C2.06159 5.64581 1.40425 5.36267 0.919594 4.85866C0.434936 4.35466 0.162659 3.67108 0.162659 2.95831C0.162659 2.24554 0.434936 1.56197 0.919594 1.05796C1.40425 0.55396 2.06159 0.270813 2.747 0.270813H30.3133Z" fill="white"/>
</svg>
