<svg width="18" height="18" viewBox="0 0 18 18" fill="none" xmlns="http://www.w3.org/2000/svg">
<path d="M16.9329 10.041C16.7441 11.4809 16.1669 12.8423 15.2631 13.9792C14.3594 15.116 13.1632 15.9853 11.8029 16.494C10.4426 17.0027 8.96952 17.1315 7.5416 16.8666C6.11368 16.6017 4.7848 15.953 3.69749 14.9903C2.61018 14.0275 1.80545 12.787 1.36961 11.4016C0.93377 10.0163 0.883258 8.53844 1.22349 7.12657C1.56373 5.7147 2.28188 4.42208 3.30091 3.38734C4.31995 2.3526 5.60144 1.61477 7.00794 1.25298C10.9069 0.252984 14.9429 2.25998 16.4329 5.99998" stroke="white" stroke-width="2" stroke-linecap="round" stroke-linejoin="round"/>
<path d="M17 1V6H12" stroke="white" stroke-width="2" stroke-linecap="round" stroke-linejoin="round"/>
</svg>
