<svg width="12" height="13" viewBox="0 0 12 13" fill="none" xmlns="http://www.w3.org/2000/svg">
<path d="M0.749983 0.874992V12.125C0.750411 12.2389 0.788108 12.3505 0.859016 12.4479C0.929924 12.5453 1.03136 12.6247 1.1524 12.6776C1.27344 12.7305 1.4095 12.7549 1.54594 12.7482C1.68239 12.7414 1.81404 12.7038 1.92673 12.6394L11.6767 7.01437C12.081 6.78124 12.081 6.21999 11.6767 5.98624L1.92673 0.361242C1.81427 0.296133 1.68256 0.257951 1.54589 0.250846C1.40922 0.24374 1.27282 0.267982 1.15153 0.320939C1.03023 0.373895 0.928667 0.45354 0.857874 0.55122C0.787082 0.6489 0.749766 0.76088 0.749983 0.874992Z" fill="#FFCB67"/>
</svg>
