<svg width="23" height="26" viewBox="0 0 23 26" fill="none" xmlns="http://www.w3.org/2000/svg">
<path d="M20.5 1.8569H16.1838C15.5784 1.26991 14.8513 0.802777 14.0464 0.483648C13.2414 0.16452 12.3752 0 11.5 0C10.6248 0 9.75856 0.16452 8.95361 0.483648C8.14866 0.802777 7.42161 1.26991 6.81625 1.8569H2.5C1.83696 1.8569 1.20107 2.10148 0.732233 2.53684C0.263392 2.9722 0 3.56267 0 4.17836V23.6785C0 24.2942 0.263392 24.8847 0.732233 25.3201C1.20107 25.7554 1.83696 26 2.5 26H20.5C21.163 26 21.7989 25.7554 22.2678 25.3201C22.7366 24.8847 23 24.2942 23 23.6785V4.17836C23 3.56267 22.7366 2.9722 22.2678 2.53684C21.7989 2.10148 21.163 1.8569 20.5 1.8569ZM14.9638 5.57123H8.03625C8.15701 4.79819 8.57355 4.09139 9.20964 3.58023C9.84573 3.06907 10.6588 2.78774 11.5 2.78774C12.3412 2.78774 13.1543 3.06907 13.7904 3.58023C14.4264 4.09139 14.843 4.79819 14.9638 5.57123ZM20 23.2143H3V4.64265H5.17625C5.05956 5.09902 5.00041 5.56645 5 6.03552V6.9641C5 7.33351 5.15804 7.68779 5.43934 7.94901C5.72064 8.21022 6.10218 8.35697 6.5 8.35697H16.5C16.8978 8.35697 17.2794 8.21022 17.5607 7.94901C17.842 7.68779 18 7.33351 18 6.9641V6.03552C17.9996 5.56645 17.9404 5.09902 17.8237 4.64265H20V23.2143Z" fill="white"/>
</svg>
